<svg width="16" height="18" viewBox="0 0 16 18" fill="none" xmlns="http://www.w3.org/2000/svg">
<g clip-path="url(#clip0_105_2639)">
<path d="M13.6667 0H4.33333C3.71449 0 3.121 0.237053 2.68342 0.65901C2.24583 1.08097 2 1.65326 2 2.25V15.75C2 16.3467 2.24583 16.919 2.68342 17.341C3.121 17.7629 3.71449 18 4.33333 18H13.6667C14.2855 18 14.879 17.7629 15.3166 17.341C15.7542 16.919 16 16.3467 16 15.75V2.25C16 1.65326 15.7542 1.08097 15.3166 0.65901C14.879 0.237053 14.2855 0 13.6667 0V0ZM4.91667 3.375H10.75C10.9047 3.375 11.0531 3.43426 11.1625 3.53975C11.2719 3.64524 11.3333 3.78832 11.3333 3.9375C11.3333 4.08668 11.2719 4.22976 11.1625 4.33525C11.0531 4.44074 10.9047 4.5 10.75 4.5H4.91667C4.76196 4.5 4.61358 4.44074 4.50419 4.33525C4.39479 4.22976 4.33333 4.08668 4.33333 3.9375C4.33333 3.78832 4.39479 3.64524 4.50419 3.53975C4.61358 3.43426 4.76196 3.375 4.91667 3.375V3.375ZM4.91667 5.625H13.0833C13.238 5.625 13.3864 5.68426 13.4958 5.78975C13.6052 5.89524 13.6667 6.03832 13.6667 6.1875V15.1875C13.6667 15.3367 13.6052 15.4798 13.4958 15.5852C13.3864 15.6907 13.238 15.75 13.0833 15.75H4.91667C4.76196 15.75 4.61358 15.6907 4.50419 15.5852C4.39479 15.4798 4.33333 15.3367 4.33333 15.1875V6.1875C4.33333 6.03832 4.39479 5.89524 4.50419 5.78975C4.61358 5.68426 4.76196 5.625 4.91667 5.625V5.625Z" fill="#B1B1B1"/>
</g>
<defs>
<clipPath id="clip0_105_2639">
<rect width="16" height="18" fill="white"/>
</clipPath>
</defs>
</svg>
